# xmcd CD database file
#
# Track frame offsets:
#	150
#	19797
#	40191
#	65225
#	92194
#	109898
#	131345
#	150196
#	181412
#	211291
#	245384
#	272600
#	291577
#
# Disc length: 4169 seconds
#
# Revision: 0
# Processed by: cddbd v1.5.2PL0 Copyright (c) Steve Scherf et al.
# Submitted via: CDex 1.74
#
DISCID=b910470d
DTITLE=Dart Valley Stompers - Streets of the City
DYEAR=2011
DGENRE=Jazz
TTITLE0=Willie the Weeper
TTITLE1=Dead I do
TTITLE2=Miss Jenny's Ball
TTITLE3=Dream a Little Dream
TTITLE4=Black Cat on the Fence
TTITLE5=Roll along Prarie Moon
TTITLE6=Streets of the City
TTITLE7=Birth of the Blues
TTITLE8=Wabash Blues
TTITLE9=Red Sails in the Sunset
TTITLE10=Cake Walking Babies from Home
TTITLE11=Give me Your Telephone Number
TTITLE12=Jambalaya
EXTD=YEAR: 2011
EXTT0=
EXTT1=
EXTT2=
EXTT3=
EXTT4=
EXTT5=
EXTT6=
EXTT7=
EXTT8=
EXTT9=
EXTT10=
EXTT11=
EXTT12=
PLAYORDER=
